<mxfile host="65bd71144e">
    <diagram id="6lG82FxlQla69wCSYWsu" name="build_test_analysis">
        <mxGraphModel dx="8330" dy="3355" grid="1" gridSize="10" guides="1" tooltips="1" connect="1" arrows="1" fold="1" page="1" pageScale="1" pageWidth="1654" pageHeight="2336" background="none" math="0" shadow="0">
            <root>
                <mxCell id="0"/>
                <mxCell id="1" parent="0"/>
                <mxCell id="74" value="" style="swimlane;startSize=0;dashed=1;fontSize=18;strokeWidth=2;strokeColor=#B3FF66;fontColor=#000000;" parent="1" vertex="1">
                    <mxGeometry x="122" y="726.25" width="1400" height="773.75" as="geometry"/>
                </mxCell>
                <mxCell id="76" value="CONTINOUS DEPLOYMENT" style="text;fillColor=none;html=1;fontSize=24;fontStyle=1;verticalAlign=middle;align=center;dashed=1;strokeColor=#1A1A1A;fontColor=#B3FF66;" parent="74" vertex="1">
                    <mxGeometry x="484" y="713.75" width="442" height="40" as="geometry"/>
                </mxCell>
                <mxCell id="65" value="DESPOSE OLD INFRA" style="whiteSpace=wrap;html=1;rounded=0;fontSize=14;fillColor=none;strokeColor=#1A1A1A;fontColor=#000000;" parent="74" vertex="1">
                    <mxGeometry x="246" y="530" width="222" height="60" as="geometry"/>
                </mxCell>
                <mxCell id="67" value="" style="ellipse;html=1;shape=endState;fillColor=#000000;dashed=1;fontSize=14;strokeColor=#1A1A1A;fontColor=#000000;" parent="74" vertex="1">
                    <mxGeometry x="1008" y="530" width="60" height="60" as="geometry"/>
                </mxCell>
                <mxCell id="68" style="edgeStyle=orthogonalEdgeStyle;rounded=0;orthogonalLoop=1;jettySize=auto;html=1;entryX=0;entryY=0.5;entryDx=0;entryDy=0;fontSize=14;startArrow=none;strokeColor=#1A1A1A;fontColor=#000000;" parent="74" source="79" target="67" edge="1">
                    <mxGeometry relative="1" as="geometry"/>
                </mxCell>
                <mxCell id="79" value="&lt;b&gt;DEPLOY MONITORING SYSTEM&lt;/b&gt;" style="rounded=0;whiteSpace=wrap;html=1;fontSize=18;strokeWidth=2;fillColor=none;strokeColor=#1A1A1A;fontColor=#000000;" parent="74" vertex="1">
                    <mxGeometry x="618" y="530" width="252" height="60" as="geometry"/>
                </mxCell>
                <mxCell id="80" value="" style="edgeStyle=orthogonalEdgeStyle;rounded=0;orthogonalLoop=1;jettySize=auto;html=1;entryX=0;entryY=0.5;entryDx=0;entryDy=0;fontSize=14;endArrow=none;strokeColor=#1A1A1A;fontColor=#000000;" parent="74" source="65" target="79" edge="1">
                    <mxGeometry relative="1" as="geometry">
                        <mxPoint x="372" y="1130" as="sourcePoint"/>
                        <mxPoint x="830" y="1286.25" as="targetPoint"/>
                    </mxGeometry>
                </mxCell>
                <mxCell id="63" value="PROMOTE APP" style="whiteSpace=wrap;html=1;rounded=0;fontSize=14;fillColor=none;strokeColor=#1A1A1A;fontColor=#000000;" parent="74" vertex="1">
                    <mxGeometry x="38" y="403.75" width="120" height="60" as="geometry"/>
                </mxCell>
                <mxCell id="66" value="" style="edgeStyle=orthogonalEdgeStyle;rounded=0;orthogonalLoop=1;jettySize=auto;html=1;fontSize=14;strokeColor=#1A1A1A;fontColor=#000000;" parent="74" source="63" target="65" edge="1">
                    <mxGeometry relative="1" as="geometry">
                        <Array as="points">
                            <mxPoint x="98" y="564"/>
                        </Array>
                    </mxGeometry>
                </mxCell>
                <mxCell id="85" value="" style="edgeStyle=orthogonalEdgeStyle;rounded=0;orthogonalLoop=1;jettySize=auto;html=1;fontSize=14;strokeColor=#1A1A1A;fontColor=#000000;" parent="74" source="81" target="84" edge="1">
                    <mxGeometry relative="1" as="geometry"/>
                </mxCell>
                <mxCell id="81" value="LAUNCH OVERLOADING TEST" style="rounded=0;whiteSpace=wrap;html=1;fontSize=14;strokeWidth=2;fillColor=none;strokeColor=#1A1A1A;fontColor=#000000;" parent="74" vertex="1">
                    <mxGeometry x="118" y="160" width="232" height="60" as="geometry"/>
                </mxCell>
                <mxCell id="69" value="pass?" style="rhombus;whiteSpace=wrap;html=1;rounded=0;fontSize=14;fillColor=none;strokeColor=#1A1A1A;fontColor=#000000;" parent="74" vertex="1">
                    <mxGeometry x="448" y="140" width="120" height="100" as="geometry"/>
                </mxCell>
                <mxCell id="82" value="Y" style="edgeStyle=orthogonalEdgeStyle;rounded=0;orthogonalLoop=1;jettySize=auto;html=1;fontSize=18;exitX=0;exitY=0.5;exitDx=0;exitDy=0;fontStyle=1;endArrow=none;strokeColor=#1A1A1A;fontColor=#009900;" parent="74" source="69" target="81" edge="1">
                    <mxGeometry relative="1" as="geometry">
                        <mxPoint x="390" y="190" as="sourcePoint"/>
                        <mxPoint x="98.00000000000023" y="373.75" as="targetPoint"/>
                    </mxGeometry>
                </mxCell>
                <mxCell id="58" value="PERFORM SMOKE TESTS" style="whiteSpace=wrap;html=1;rounded=0;fontSize=14;fillColor=#2A2A2A;strokeColor=#1A1A1A;fontColor=#000000;" parent="74" vertex="1">
                    <mxGeometry x="678" y="160" width="120" height="60" as="geometry"/>
                </mxCell>
                <mxCell id="70" value="" style="edgeStyle=orthogonalEdgeStyle;rounded=0;orthogonalLoop=1;jettySize=auto;html=1;fontSize=14;strokeColor=#1A1A1A;fontColor=#000000;" parent="74" source="58" target="69" edge="1">
                    <mxGeometry relative="1" as="geometry"/>
                </mxCell>
                <mxCell id="86" value="Y" style="edgeStyle=orthogonalEdgeStyle;rounded=0;orthogonalLoop=1;jettySize=auto;html=1;fontSize=18;fontStyle=1;strokeColor=#1A1A1A;fontColor=#009900;" parent="74" source="84" target="63" edge="1">
                    <mxGeometry relative="1" as="geometry"/>
                </mxCell>
                <mxCell id="89" value="N" style="edgeStyle=orthogonalEdgeStyle;rounded=0;orthogonalLoop=1;jettySize=auto;html=1;fontSize=18;fontStyle=1;strokeColor=#1A1A1A;fontColor=#FF0000;" parent="74" source="84" target="88" edge="1">
                    <mxGeometry relative="1" as="geometry"/>
                </mxCell>
                <mxCell id="84" value="pass?" style="rhombus;whiteSpace=wrap;html=1;rounded=0;fontSize=14;strokeWidth=2;fillColor=none;strokeColor=#1A1A1A;fontColor=#000000;" parent="74" vertex="1">
                    <mxGeometry x="194" y="290" width="80" height="80" as="geometry"/>
                </mxCell>
                <mxCell id="90" style="edgeStyle=orthogonalEdgeStyle;rounded=0;orthogonalLoop=1;jettySize=auto;html=1;entryX=0.5;entryY=0;entryDx=0;entryDy=0;fontSize=18;strokeColor=#1A1A1A;fontColor=#000000;" parent="74" source="88" target="67" edge="1">
                    <mxGeometry relative="1" as="geometry"/>
                </mxCell>
                <mxCell id="88" value="DESTROY INFRA" style="whiteSpace=wrap;html=1;rounded=0;fontSize=14;strokeWidth=2;fillColor=#2A2A2A;strokeColor=#1A1A1A;fontColor=#000000;" parent="74" vertex="1">
                    <mxGeometry x="508" y="300" width="172" height="60" as="geometry"/>
                </mxCell>
                <mxCell id="93" value="success?" style="rhombus;whiteSpace=wrap;html=1;rounded=0;fontSize=14;fillColor=none;strokeColor=#1A1A1A;fontColor=#000000;" parent="74" vertex="1">
                    <mxGeometry x="1180" y="-380" width="80" height="61.25" as="geometry"/>
                </mxCell>
                <mxCell id="94" value="&lt;font&gt;CREATE INFRASTRUCTURE&lt;/font&gt;" style="rounded=0;whiteSpace=wrap;html=1;fontSize=14;fillColor=none;strokeColor=#1A1A1A;fontColor=#000000;" parent="74" vertex="1">
                    <mxGeometry x="1135" y="30" width="170" height="60" as="geometry"/>
                </mxCell>
                <mxCell id="95" value="success?" style="rhombus;whiteSpace=wrap;html=1;rounded=0;fontSize=14;fillColor=none;strokeColor=#1A1A1A;fontColor=#000000;" parent="74" vertex="1">
                    <mxGeometry x="1170" y="150" width="100" height="80" as="geometry"/>
                </mxCell>
                <mxCell id="96" value="DEPOY KEBERNETES" style="whiteSpace=wrap;html=1;rounded=0;fontSize=14;fillColor=none;strokeColor=#1A1A1A;fontColor=#000000;" parent="74" vertex="1">
                    <mxGeometry x="885" y="160" width="120" height="60" as="geometry"/>
                </mxCell>
                <mxCell id="97" value="PERFORM SMOKE TESTS" style="whiteSpace=wrap;html=1;rounded=0;fontSize=14;fillColor=none;strokeColor=#1A1A1A;fontColor=#000000;" parent="74" vertex="1">
                    <mxGeometry x="678" y="160" width="120" height="60" as="geometry"/>
                </mxCell>
                <mxCell id="98" value="DESTROY INFRA" style="whiteSpace=wrap;html=1;rounded=0;fontSize=14;strokeWidth=2;fillColor=none;strokeColor=#1A1A1A;fontColor=#000000;" parent="74" vertex="1">
                    <mxGeometry x="508" y="300" width="172" height="60" as="geometry"/>
                </mxCell>
                <mxCell id="99" value="" style="ellipse;html=1;shape=endState;dashed=1;fontSize=14;fillColor=none;strokeColor=#1A1A1A;fontColor=#000000;" parent="74" vertex="1">
                    <mxGeometry x="1008" y="530" width="60" height="60" as="geometry"/>
                </mxCell>
                <mxCell id="78" value="" style="swimlane;startSize=0;dashed=1;fontSize=18;strokeWidth=2;fillColor=#FF8000;labelBackgroundColor=none;labelBorderColor=none;strokeColor=#FF8000;fontColor=#000000;" parent="1" vertex="1">
                    <mxGeometry x="120" y="80" width="1402" height="610" as="geometry"/>
                </mxCell>
                <mxCell id="2" value="PUSH" style="ellipse;whiteSpace=wrap;html=1;aspect=fixed;strokeColor=#1A1A1A;fontColor=#000000;" parent="78" vertex="1">
                    <mxGeometry x="77" y="50" width="70" height="70" as="geometry"/>
                </mxCell>
                <mxCell id="225" style="edgeStyle=orthogonalEdgeStyle;rounded=0;orthogonalLoop=1;jettySize=auto;html=1;entryX=0.5;entryY=0;entryDx=0;entryDy=0;fontSize=14;fontColor=#B3FF66;dashed=1;" edge="1" parent="78" source="49" target="224">
                    <mxGeometry relative="1" as="geometry"/>
                </mxCell>
                <mxCell id="49" value="MAIN BRANCH ONLY" style="shape=note;strokeWidth=2;fontSize=14;size=20;whiteSpace=wrap;html=1;fillColor=#fff2cc;strokeColor=#1A1A1A;fontColor=#000000;" parent="78" vertex="1">
                    <mxGeometry x="1262" y="20" width="110" height="50" as="geometry"/>
                </mxCell>
                <mxCell id="224" value="" style="swimlane;startSize=0;labelBackgroundColor=none;fontSize=14;fontColor=#B3FF66;fillColor=#2a2a2a;dashed=1;" vertex="1" parent="78">
                    <mxGeometry x="845" y="128" width="510" height="282" as="geometry"/>
                </mxCell>
                <mxCell id="3" style="edgeStyle=orthogonalEdgeStyle;rounded=0;orthogonalLoop=1;jettySize=auto;html=1;entryX=0.5;entryY=0;entryDx=0;entryDy=0;strokeColor=#1A1A1A;fontColor=#000000;" parent="1" source="2" target="4" edge="1">
                    <mxGeometry relative="1" as="geometry">
                        <mxPoint x="242" y="306.25" as="targetPoint"/>
                    </mxGeometry>
                </mxCell>
                <mxCell id="7" style="edgeStyle=orthogonalEdgeStyle;rounded=0;orthogonalLoop=1;jettySize=auto;html=1;entryX=0;entryY=0.5;entryDx=0;entryDy=0;entryPerimeter=0;strokeColor=#1A1A1A;fontColor=#000000;" parent="1" source="4" target="8" edge="1">
                    <mxGeometry relative="1" as="geometry">
                        <mxPoint x="362" y="311.25" as="targetPoint"/>
                    </mxGeometry>
                </mxCell>
                <mxCell id="13" style="edgeStyle=orthogonalEdgeStyle;rounded=0;orthogonalLoop=1;jettySize=auto;html=1;entryX=0;entryY=0.5;entryDx=0;entryDy=0;entryPerimeter=0;fontSize=14;fontStyle=1;strokeColor=#1A1A1A;fontColor=#000000;" parent="1" source="6" target="11" edge="1">
                    <mxGeometry relative="1" as="geometry">
                        <Array as="points">
                            <mxPoint x="232" y="461.25"/>
                        </Array>
                    </mxGeometry>
                </mxCell>
                <mxCell id="9" value="N" style="edgeStyle=orthogonalEdgeStyle;rounded=0;orthogonalLoop=1;jettySize=auto;html=1;fontSize=18;fontStyle=1;entryX=0;entryY=0.5;entryDx=0;entryDy=0;strokeColor=#1A1A1A;fontColor=#FF0000;" parent="1" source="8" target="12" edge="1">
                    <mxGeometry relative="1" as="geometry">
                        <mxPoint x="602" y="311.25" as="targetPoint"/>
                    </mxGeometry>
                </mxCell>
                <mxCell id="10" value="Y" style="edgeStyle=orthogonalEdgeStyle;rounded=0;orthogonalLoop=1;jettySize=auto;html=1;fontSize=18;fontStyle=1;strokeColor=#1A1A1A;fontColor=#009900;" parent="1" source="8" target="6" edge="1">
                    <mxGeometry relative="1" as="geometry">
                        <Array as="points">
                            <mxPoint x="392" y="336.25"/>
                            <mxPoint x="232" y="336.25"/>
                        </Array>
                    </mxGeometry>
                </mxCell>
                <mxCell id="14" value="N" style="edgeStyle=orthogonalEdgeStyle;rounded=0;orthogonalLoop=1;jettySize=auto;html=1;entryX=0.25;entryY=1;entryDx=0;entryDy=0;fontSize=18;fontStyle=1;strokeColor=#1A1A1A;fontColor=#FF0000;" parent="1" source="11" target="12" edge="1">
                    <mxGeometry relative="1" as="geometry"/>
                </mxCell>
                <mxCell id="73" value="Y" style="edgeStyle=orthogonalEdgeStyle;rounded=0;orthogonalLoop=1;jettySize=auto;html=1;entryX=0.5;entryY=0;entryDx=0;entryDy=0;fontSize=18;fontStyle=1;strokeColor=#1A1A1A;fontColor=#009900;" parent="1" source="11" target="16" edge="1">
                    <mxGeometry relative="1" as="geometry">
                        <Array as="points">
                            <mxPoint x="412" y="536.25"/>
                            <mxPoint x="237" y="536.25"/>
                        </Array>
                    </mxGeometry>
                </mxCell>
                <mxCell id="18" style="edgeStyle=orthogonalEdgeStyle;rounded=0;orthogonalLoop=1;jettySize=auto;html=1;strokeColor=#1A1A1A;fontColor=#000000;" parent="1" source="16" target="17" edge="1">
                    <mxGeometry relative="1" as="geometry"/>
                </mxCell>
                <mxCell id="25" value="N" style="edgeStyle=orthogonalEdgeStyle;rounded=0;orthogonalLoop=1;jettySize=auto;html=1;entryX=0.5;entryY=1;entryDx=0;entryDy=0;fontSize=18;fontStyle=1;strokeColor=#1A1A1A;fontColor=#FF0000;" parent="1" source="17" target="12" edge="1">
                    <mxGeometry relative="1" as="geometry"/>
                </mxCell>
                <mxCell id="23" style="edgeStyle=orthogonalEdgeStyle;rounded=0;orthogonalLoop=1;jettySize=auto;html=1;entryX=0.507;entryY=0.973;entryDx=0;entryDy=0;entryPerimeter=0;fontSize=14;strokeColor=#1A1A1A;fontColor=#000000;" parent="1" source="21" target="22" edge="1">
                    <mxGeometry relative="1" as="geometry"/>
                </mxCell>
                <mxCell id="21" value="BUILD DOCKER IMAGE" style="rounded=0;whiteSpace=wrap;html=1;fontSize=14;strokeColor=#1A1A1A;fontColor=#000000;" parent="1" vertex="1">
                    <mxGeometry x="1002" y="396.25" width="120" height="50" as="geometry"/>
                </mxCell>
                <mxCell id="24" value="N" style="edgeStyle=orthogonalEdgeStyle;rounded=0;orthogonalLoop=1;jettySize=auto;html=1;fontSize=18;fontStyle=1;entryX=0.5;entryY=0;entryDx=0;entryDy=0;strokeColor=#1A1A1A;fontColor=#FF0000;" parent="1" source="22" target="32" edge="1">
                    <mxGeometry relative="1" as="geometry">
                        <mxPoint x="782" y="426.25" as="targetPoint"/>
                    </mxGeometry>
                </mxCell>
                <mxCell id="26" value="Y" style="edgeStyle=orthogonalEdgeStyle;rounded=0;orthogonalLoop=1;jettySize=auto;html=1;fontSize=18;entryX=0;entryY=0.5;entryDx=0;entryDy=0;fontStyle=1;strokeColor=#1A1A1A;fontColor=#009900;" parent="1" source="22" target="27" edge="1">
                    <mxGeometry relative="1" as="geometry">
                        <mxPoint x="1062" y="369.25" as="targetPoint"/>
                    </mxGeometry>
                </mxCell>
                <mxCell id="22" value="success?" style="html=1;whiteSpace=wrap;aspect=fixed;shape=isoRectangle;fontSize=14;strokeColor=#1A1A1A;fontColor=#000000;" parent="1" vertex="1">
                    <mxGeometry x="1007" y="229" width="110" height="66" as="geometry"/>
                </mxCell>
                <mxCell id="46" value="" style="edgeStyle=orthogonalEdgeStyle;rounded=0;orthogonalLoop=1;jettySize=auto;html=1;fontSize=14;strokeColor=#1A1A1A;fontColor=#000000;" parent="1" source="27" target="45" edge="1">
                    <mxGeometry relative="1" as="geometry"/>
                </mxCell>
                <mxCell id="31" style="edgeStyle=orthogonalEdgeStyle;rounded=0;orthogonalLoop=1;jettySize=auto;html=1;entryX=0.5;entryY=1;entryDx=0;entryDy=0;fontSize=14;strokeColor=#1A1A1A;fontColor=#000000;" parent="1" source="29" target="21" edge="1">
                    <mxGeometry relative="1" as="geometry"/>
                </mxCell>
                <mxCell id="29" value="MERGE" style="rounded=0;whiteSpace=wrap;html=1;fontSize=14;strokeColor=#1A1A1A;fontColor=#000000;" parent="1" vertex="1">
                    <mxGeometry x="839" y="596.25" width="120" height="60" as="geometry"/>
                </mxCell>
                <mxCell id="30" value="Y" style="edgeStyle=orthogonalEdgeStyle;rounded=0;orthogonalLoop=1;jettySize=auto;html=1;fontSize=18;fontStyle=1;entryX=0.5;entryY=1;entryDx=0;entryDy=0;endArrow=none;strokeColor=#1A1A1A;fontColor=#009900;" parent="1" source="17" target="32" edge="1">
                    <mxGeometry relative="1" as="geometry">
                        <mxPoint x="852" y="496.25" as="targetPoint"/>
                        <mxPoint x="692" y="596.2500000000002" as="sourcePoint"/>
                    </mxGeometry>
                </mxCell>
                <mxCell id="33" style="edgeStyle=orthogonalEdgeStyle;rounded=0;orthogonalLoop=1;jettySize=auto;html=1;entryX=0.5;entryY=0;entryDx=0;entryDy=0;fontSize=14;startArrow=none;strokeColor=#1A1A1A;fontColor=#000000;" parent="1" source="34" target="29" edge="1">
                    <mxGeometry relative="1" as="geometry"/>
                </mxCell>
                <mxCell id="36" style="edgeStyle=orthogonalEdgeStyle;rounded=0;orthogonalLoop=1;jettySize=auto;html=1;entryX=-0.008;entryY=0.479;entryDx=0;entryDy=0;entryPerimeter=0;fontSize=14;strokeColor=#1A1A1A;fontColor=#000000;" parent="1" source="32" target="34" edge="1">
                    <mxGeometry relative="1" as="geometry"/>
                </mxCell>
                <mxCell id="32" value="NOTIFY REVIEWER" style="rounded=0;whiteSpace=wrap;html=1;fontSize=14;strokeColor=#1A1A1A;fontColor=#000000;" parent="1" vertex="1">
                    <mxGeometry x="642" y="431.25" width="120" height="60" as="geometry"/>
                </mxCell>
                <mxCell id="37" value="N" style="edgeStyle=orthogonalEdgeStyle;rounded=0;orthogonalLoop=1;jettySize=auto;html=1;entryX=0.75;entryY=1;entryDx=0;entryDy=0;fontSize=18;fontStyle=1;strokeColor=#1A1A1A;fontColor=#FF0000;" parent="1" source="34" target="12" edge="1">
                    <mxGeometry relative="1" as="geometry">
                        <Array as="points">
                            <mxPoint x="899" y="336.25"/>
                            <mxPoint x="602" y="336.25"/>
                        </Array>
                    </mxGeometry>
                </mxCell>
                <mxCell id="34" value="approved?" style="html=1;whiteSpace=wrap;aspect=fixed;shape=isoRectangle;fontSize=14;strokeColor=#1A1A1A;fontColor=#000000;" parent="1" vertex="1">
                    <mxGeometry x="848" y="431.25" width="102.34" height="61.4" as="geometry"/>
                </mxCell>
                <mxCell id="42" style="edgeStyle=orthogonalEdgeStyle;rounded=0;orthogonalLoop=1;jettySize=auto;html=1;entryX=0;entryY=0.5;entryDx=0;entryDy=0;fontSize=14;dashed=1;strokeColor=#1A1A1A;fontColor=#000000;" parent="1" source="41" target="6" edge="1">
                    <mxGeometry relative="1" as="geometry"/>
                </mxCell>
                <mxCell id="41" value="TEST COVERAGE &amp;gt;= 75%" style="shape=note;strokeWidth=2;fontSize=14;size=20;whiteSpace=wrap;html=1;fillColor=#fff2cc;strokeColor=#1A1A1A;fontColor=#000000;" parent="1" vertex="1">
                    <mxGeometry x="82" y="466.25" width="110.00000000000001" height="80" as="geometry"/>
                </mxCell>
                <mxCell id="53" value="" style="edgeStyle=orthogonalEdgeStyle;rounded=0;orthogonalLoop=1;jettySize=auto;html=1;fontSize=14;strokeColor=#1A1A1A;fontColor=#000000;" parent="1" source="44" target="52" edge="1">
                    <mxGeometry relative="1" as="geometry"/>
                </mxCell>
                <mxCell id="44" value="&lt;font&gt;CREATE INFRASTRUCTURE&lt;/font&gt;" style="rounded=0;whiteSpace=wrap;html=1;fontSize=14;fillColor=#2A2A2A;strokeColor=#1A1A1A;fontColor=#000000;" parent="1" vertex="1">
                    <mxGeometry x="1257" y="756.25" width="170" height="60" as="geometry"/>
                </mxCell>
                <mxCell id="47" value="N" style="edgeStyle=orthogonalEdgeStyle;rounded=0;orthogonalLoop=1;jettySize=auto;html=1;entryX=0.75;entryY=0;entryDx=0;entryDy=0;fontSize=18;exitX=0;exitY=0.5;exitDx=0;exitDy=0;fontStyle=1;strokeColor=#1A1A1A;fontColor=#FF0000;" parent="1" source="45" target="32" edge="1">
                    <mxGeometry relative="1" as="geometry">
                        <Array as="points">
                            <mxPoint x="732" y="377.25"/>
                        </Array>
                    </mxGeometry>
                </mxCell>
                <mxCell id="48" value="Y" style="edgeStyle=orthogonalEdgeStyle;rounded=0;orthogonalLoop=1;jettySize=auto;html=1;entryX=0.5;entryY=0;entryDx=0;entryDy=0;fontSize=18;fontStyle=1;strokeColor=#1A1A1A;fontColor=#009900;" parent="1" source="45" target="44" edge="1">
                    <mxGeometry relative="1" as="geometry"/>
                </mxCell>
                <mxCell id="45" value="success?" style="rhombus;whiteSpace=wrap;html=1;rounded=0;fontSize=14;fillColor=none;strokeColor=#1A1A1A;fontColor=#000000;" parent="1" vertex="1">
                    <mxGeometry x="1302" y="346.25" width="80" height="61.25" as="geometry"/>
                </mxCell>
                <mxCell id="56" value="Y" style="edgeStyle=orthogonalEdgeStyle;rounded=0;orthogonalLoop=1;jettySize=auto;html=1;fontSize=18;fontStyle=1;strokeColor=#1A1A1A;fontColor=#009900;" parent="1" source="52" target="55" edge="1">
                    <mxGeometry relative="1" as="geometry"/>
                </mxCell>
                <mxCell id="75" value="N" style="edgeStyle=orthogonalEdgeStyle;rounded=0;orthogonalLoop=1;jettySize=auto;html=1;fontSize=18;fontStyle=1;strokeColor=#1A1A1A;fontColor=#FF0000;" parent="1" source="52" target="67" edge="1">
                    <mxGeometry relative="1" as="geometry">
                        <Array as="points">
                            <mxPoint x="1342" y="1286"/>
                        </Array>
                    </mxGeometry>
                </mxCell>
                <mxCell id="52" value="success?" style="rhombus;whiteSpace=wrap;html=1;rounded=0;fontSize=14;fillColor=#2A2A2A;strokeColor=#1A1A1A;fontColor=#000000;" parent="1" vertex="1">
                    <mxGeometry x="1292" y="876.25" width="100" height="80" as="geometry"/>
                </mxCell>
                <mxCell id="59" value="" style="edgeStyle=orthogonalEdgeStyle;rounded=0;orthogonalLoop=1;jettySize=auto;html=1;fontSize=14;strokeColor=#1A1A1A;fontColor=#000000;" parent="1" source="55" target="58" edge="1">
                    <mxGeometry relative="1" as="geometry"/>
                </mxCell>
                <mxCell id="55" value="DEPOY KEBERNETES" style="whiteSpace=wrap;html=1;rounded=0;fontSize=14;fillColor=#2A2A2A;strokeColor=#1A1A1A;fontColor=#000000;" parent="1" vertex="1">
                    <mxGeometry x="1007" y="886.25" width="120" height="60" as="geometry"/>
                </mxCell>
                <mxCell id="71" value="N" style="edgeStyle=orthogonalEdgeStyle;rounded=0;orthogonalLoop=1;jettySize=auto;html=1;entryX=0;entryY=0.5;entryDx=0;entryDy=0;fontSize=18;fontStyle=1;strokeColor=#1A1A1A;fontColor=#FF0000;" parent="1" source="69" target="4" edge="1">
                    <mxGeometry relative="1" as="geometry">
                        <Array as="points">
                            <mxPoint x="630" y="786"/>
                            <mxPoint x="42" y="786"/>
                            <mxPoint x="42" y="273"/>
                        </Array>
                    </mxGeometry>
                </mxCell>
                <mxCell id="77" value="CONTINUOUS INTEGRATION" style="text;fillColor=none;html=1;fontSize=24;fontStyle=1;verticalAlign=middle;align=center;dashed=1;strokeColor=#1A1A1A;fontColor=#FF8000;" parent="1" vertex="1">
                    <mxGeometry x="450" y="110" width="560" height="40" as="geometry"/>
                </mxCell>
                <mxCell id="91" value="success?" style="rhombus;whiteSpace=wrap;html=1;rounded=0;fontSize=14;fillColor=none;strokeColor=#1A1A1A;fontColor=#000000;" parent="1" vertex="1">
                    <mxGeometry x="1302" y="346.25" width="80" height="61.25" as="geometry"/>
                </mxCell>
                <mxCell id="92" value="&lt;font&gt;CREATE INFRASTRUCTURE&lt;/font&gt;" style="rounded=0;whiteSpace=wrap;html=1;fontSize=14;fillColor=#2A2A2A;strokeColor=#1A1A1A;fontColor=#000000;" parent="1" vertex="1">
                    <mxGeometry x="1257" y="756.25" width="170" height="60" as="geometry"/>
                </mxCell>
                <mxCell id="4" value="BUILD" style="html=1;dashed=0;whitespace=wrap;fillColor=none;strokeColor=#1A1A1A;fontColor=#000000;" parent="1" vertex="1">
                    <mxGeometry x="182" y="253.75" width="100" height="37.5" as="geometry"/>
                </mxCell>
                <mxCell id="6" value="TEST" style="html=1;dashed=0;whitespace=wrap;fillColor=none;strokeColor=#1A1A1A;fontColor=#000000;" parent="1" vertex="1">
                    <mxGeometry x="182" y="396.25" width="100" height="30" as="geometry"/>
                </mxCell>
                <mxCell id="8" value="pass?" style="strokeWidth=2;html=1;shape=mxgraph.flowchart.decision;whiteSpace=wrap;fillColor=none;strokeColor=#1A1A1A;fontColor=#000000;" parent="1" vertex="1">
                    <mxGeometry x="352" y="250" width="80" height="45" as="geometry"/>
                </mxCell>
                <mxCell id="11" value="pass?" style="strokeWidth=2;html=1;shape=mxgraph.flowchart.decision;whiteSpace=wrap;fontSize=14;fillColor=none;strokeColor=#1A1A1A;fontColor=#000000;" parent="1" vertex="1">
                    <mxGeometry x="377" y="426.25" width="70" height="70" as="geometry"/>
                </mxCell>
                <mxCell id="12" value="NOTIFY DEVELOPER" style="rounded=0;whiteSpace=wrap;html=1;fontSize=14;fillColor=none;strokeColor=#1A1A1A;fontColor=#000000;" parent="1" vertex="1">
                    <mxGeometry x="512" y="242.5" width="120" height="60" as="geometry"/>
                </mxCell>
                <mxCell id="16" value="ANALYZE" style="rounded=0;whiteSpace=wrap;html=1;fontSize=14;fillColor=none;strokeColor=#1A1A1A;fontColor=#000000;" parent="1" vertex="1">
                    <mxGeometry x="182" y="606.25" width="110" height="40" as="geometry"/>
                </mxCell>
                <mxCell id="17" value="pass?" style="rhombus;whiteSpace=wrap;html=1;fillColor=none;strokeColor=#1A1A1A;fontColor=#000000;" parent="1" vertex="1">
                    <mxGeometry x="532" y="586.25" width="80" height="80" as="geometry"/>
                </mxCell>
                <mxCell id="27" value="&lt;font&gt;PUSH DOCKER IMAGE&lt;/font&gt;" style="rounded=0;whiteSpace=wrap;html=1;fontSize=14;strokeColor=#1A1A1A;fontStyle=0;fontColor=#66CC00;" parent="1" vertex="1">
                    <mxGeometry x="1282" y="235" width="120" height="60" as="geometry"/>
                </mxCell>
                <mxCell id="100" value="success?" style="rhombus;whiteSpace=wrap;html=1;rounded=0;fontSize=14;strokeColor=#1A1A1A;fontColor=#000000;" parent="1" vertex="1">
                    <mxGeometry x="1302" y="346.25" width="80" height="61.25" as="geometry"/>
                </mxCell>
                <mxCell id="101" value="&lt;font&gt;CREATE INFRASTRUCTURE&lt;/font&gt;" style="rounded=0;whiteSpace=wrap;html=1;fontSize=14;strokeColor=#1A1A1A;fontColor=#000000;" parent="1" vertex="1">
                    <mxGeometry x="1257" y="756.25" width="170" height="60" as="geometry"/>
                </mxCell>
                <mxCell id="102" value="success?" style="rhombus;whiteSpace=wrap;html=1;rounded=0;fontSize=14;strokeColor=#1A1A1A;fontColor=#000000;" parent="1" vertex="1">
                    <mxGeometry x="1292" y="876.25" width="100" height="80" as="geometry"/>
                </mxCell>
                <mxCell id="103" value="DEPOY KEBERNETES" style="whiteSpace=wrap;html=1;rounded=0;fontSize=14;strokeColor=#1A1A1A;fontColor=#000000;" parent="1" vertex="1">
                    <mxGeometry x="1007" y="886.25" width="120" height="60" as="geometry"/>
                </mxCell>
                <mxCell id="104" value="PERFORM SMOKE TESTS" style="whiteSpace=wrap;html=1;rounded=0;fontSize=14;strokeColor=#1A1A1A;fontColor=#000000;" parent="1" vertex="1">
                    <mxGeometry x="800" y="886.25" width="120" height="60" as="geometry"/>
                </mxCell>
                <mxCell id="105" value="DESTROY INFRA" style="whiteSpace=wrap;html=1;rounded=0;fontSize=14;strokeWidth=2;fillColor=none;strokeColor=#1A1A1A;fontColor=#FF3333;" parent="1" vertex="1">
                    <mxGeometry x="630" y="1026.25" width="172" height="60" as="geometry"/>
                </mxCell>
                <mxCell id="106" value="" style="ellipse;html=1;shape=endState;dashed=1;fontSize=14;fontColor=#000000;strokeColor=#FF3333;" parent="1" vertex="1">
                    <mxGeometry x="1130" y="1256.25" width="60" height="60" as="geometry"/>
                </mxCell>
                <mxCell id="107" value="&lt;b style=&quot;font-size: 14px;&quot;&gt;DEPLOY MONITORING SYSTEM&lt;/b&gt;" style="rounded=0;whiteSpace=wrap;html=1;fontSize=14;strokeWidth=2;strokeColor=#1A1A1A;fontColor=#66CC00;" parent="1" vertex="1">
                    <mxGeometry x="740" y="1256.25" width="252" height="60" as="geometry"/>
                </mxCell>
                <mxCell id="108" value="DESPOSE OLD INFRA" style="whiteSpace=wrap;html=1;rounded=0;fontSize=14;strokeColor=#1A1A1A;fontColor=#FF3333;" parent="1" vertex="1">
                    <mxGeometry x="368" y="1256.25" width="222" height="60" as="geometry"/>
                </mxCell>
                <mxCell id="109" value="pass?" style="rhombus;whiteSpace=wrap;html=1;rounded=0;fontSize=14;strokeColor=#1A1A1A;fontColor=#000000;" parent="1" vertex="1">
                    <mxGeometry x="570" y="866.25" width="120" height="100" as="geometry"/>
                </mxCell>
                <mxCell id="110" value="LAUNCH OVERLOADING TEST" style="rounded=0;whiteSpace=wrap;html=1;fontSize=14;strokeWidth=2;strokeColor=#1A1A1A;labelBackgroundColor=none;fontColor=#000000;" parent="1" vertex="1">
                    <mxGeometry x="240" y="886.25" width="232" height="60" as="geometry"/>
                </mxCell>
                <mxCell id="111" value="pass?" style="rhombus;whiteSpace=wrap;html=1;rounded=0;fontSize=14;strokeWidth=2;strokeColor=#1A1A1A;fontColor=#000000;" parent="1" vertex="1">
                    <mxGeometry x="316" y="1016.25" width="80" height="80" as="geometry"/>
                </mxCell>
                <mxCell id="112" value="PROMOTE APP" style="whiteSpace=wrap;html=1;rounded=0;fontSize=14;strokeColor=#1A1A1A;fontColor=#000000;" parent="1" vertex="1">
                    <mxGeometry x="160" y="1130" width="120" height="60" as="geometry"/>
                </mxCell>
                <mxCell id="113" value="BUILD DOCKER IMAGE" style="rounded=0;whiteSpace=wrap;html=1;fontSize=14;strokeColor=#1A1A1A;fontColor=#000000;" parent="1" vertex="1">
                    <mxGeometry x="1002" y="396.25" width="120" height="50" as="geometry"/>
                </mxCell>
                <mxCell id="114" value="success?" style="html=1;whiteSpace=wrap;aspect=fixed;shape=isoRectangle;fontSize=14;strokeColor=#1A1A1A;fontColor=#000000;" parent="1" vertex="1">
                    <mxGeometry x="1007" y="229" width="110" height="66" as="geometry"/>
                </mxCell>
                <mxCell id="115" value="approved?" style="html=1;whiteSpace=wrap;aspect=fixed;shape=isoRectangle;fontSize=14;strokeColor=#1A1A1A;fontColor=#000000;" parent="1" vertex="1">
                    <mxGeometry x="848" y="431.25" width="102.34" height="61.4" as="geometry"/>
                </mxCell>
                <mxCell id="116" value="MERGE" style="rounded=0;whiteSpace=wrap;html=1;fontSize=14;strokeColor=#1A1A1A;fontColor=#000000;" parent="1" vertex="1">
                    <mxGeometry x="839" y="596.25" width="120" height="60" as="geometry"/>
                </mxCell>
                <mxCell id="117" value="NOTIFY REVIEWER" style="rounded=0;whiteSpace=wrap;html=1;fontSize=14;fillColor=none;strokeColor=#1A1A1A;fontColor=#000000;" parent="1" vertex="1">
                    <mxGeometry x="642" y="431.25" width="120" height="60" as="geometry"/>
                </mxCell>
                <mxCell id="214" value="PUSH" style="ellipse;whiteSpace=wrap;html=1;aspect=fixed;strokeColor=#1A1A1A;fontColor=#000000;" parent="1" vertex="1">
                    <mxGeometry x="197" y="130" width="70" height="70" as="geometry"/>
                </mxCell>
                <mxCell id="215" value="BUILD" style="html=1;dashed=0;whitespace=wrap;strokeColor=#1A1A1A;fontColor=#000000;" parent="1" vertex="1">
                    <mxGeometry x="182" y="253.75" width="100" height="37.5" as="geometry"/>
                </mxCell>
                <mxCell id="216" value="TEST" style="html=1;dashed=0;whitespace=wrap;strokeColor=#1A1A1A;fontColor=#000000;" parent="1" vertex="1">
                    <mxGeometry x="182" y="396.25" width="100" height="30" as="geometry"/>
                </mxCell>
                <mxCell id="217" value="pass?" style="strokeWidth=2;html=1;shape=mxgraph.flowchart.decision;whiteSpace=wrap;strokeColor=#1A1A1A;fontColor=#000000;" parent="1" vertex="1">
                    <mxGeometry x="352" y="250" width="80" height="45" as="geometry"/>
                </mxCell>
                <mxCell id="218" value="pass?" style="strokeWidth=2;html=1;shape=mxgraph.flowchart.decision;whiteSpace=wrap;fontSize=14;strokeColor=#1A1A1A;fontColor=#000000;" parent="1" vertex="1">
                    <mxGeometry x="377" y="426.25" width="70" height="70" as="geometry"/>
                </mxCell>
                <mxCell id="219" value="NOTIFY DEVELOPER" style="rounded=0;whiteSpace=wrap;html=1;fontSize=14;strokeColor=#1A1A1A;fontColor=#000000;" parent="1" vertex="1">
                    <mxGeometry x="512" y="242.5" width="120" height="60" as="geometry"/>
                </mxCell>
                <mxCell id="220" value="NOTIFY REVIEWER" style="rounded=0;whiteSpace=wrap;html=1;fontSize=14;fillColor=none;strokeColor=#1A1A1A;fontColor=#66CC00;" parent="1" vertex="1">
                    <mxGeometry x="642" y="431.25" width="120" height="60" as="geometry"/>
                </mxCell>
                <mxCell id="221" value="pass?" style="rhombus;whiteSpace=wrap;html=1;strokeColor=#1A1A1A;fontColor=#000000;" parent="1" vertex="1">
                    <mxGeometry x="532" y="586.25" width="80" height="80" as="geometry"/>
                </mxCell>
                <mxCell id="222" value="ANALYZE" style="rounded=0;whiteSpace=wrap;html=1;fontSize=14;strokeColor=#1A1A1A;fontColor=#000000;" parent="1" vertex="1">
                    <mxGeometry x="182" y="606.25" width="110" height="40" as="geometry"/>
                </mxCell>
            </root>
        </mxGraphModel>
    </diagram>
</mxfile>